<svg width="15" height="15" viewBox="0 0 15 15" fill="none" xmlns="http://www.w3.org/2000/svg">
<path d="M10.3257 6.44531C10.3257 6.1217 10.0634 5.85938 9.73974 5.85938H3.70459C3.38098 5.85938 3.11865 6.1217 3.11865 6.44531C3.11865 6.76893 3.38098 7.03125 3.70459 7.03125H9.73974C10.0634 7.03125 10.3257 6.76893 10.3257 6.44531Z" fill="black"/>
<path d="M3.70459 8.20312C3.38098 8.20312 3.11865 8.46545 3.11865 8.78906C3.11865 9.11268 3.38098 9.375 3.70459 9.375H7.36996C7.69357 9.375 7.9559 9.11268 7.9559 8.78906C7.9559 8.46545 7.69357 8.20312 7.36996 8.20312H3.70459Z" fill="black"/>
<path d="M5.08171 13.8281H3.12207C2.4759 13.8281 1.9502 13.3024 1.9502 12.6562V2.34375C1.9502 1.69758 2.4759 1.17188 3.12207 1.17188H10.3258C10.972 1.17188 11.4977 1.69758 11.4977 2.34375V5.94727C11.4977 6.27088 11.76 6.5332 12.0837 6.5332C12.4073 6.5332 12.6696 6.27088 12.6696 5.94727V2.34375C12.6696 1.05141 11.6182 0 10.3258 0H3.12207C1.82973 0 0.77832 1.05141 0.77832 2.34375V12.6562C0.77832 13.9486 1.82973 15 3.12207 15H5.08171C5.40532 15 5.66765 14.7377 5.66765 14.4141C5.66765 14.0904 5.40532 13.8281 5.08171 13.8281Z" fill="black"/>
<path d="M13.7073 8.48334C13.022 7.79797 11.9068 7.79794 11.2219 8.48287L8.00499 11.6926C7.93667 11.7608 7.88628 11.8448 7.85821 11.9371L7.15764 14.2435C7.09553 14.448 7.14964 14.67 7.29888 14.823C7.41067 14.9376 7.56255 14.9998 7.71832 14.9998C7.77044 14.9998 7.82306 14.9928 7.87471 14.9785L10.2397 14.3234C10.337 14.2964 10.4257 14.2448 10.4972 14.1734L13.7074 10.9693C14.3927 10.2839 14.3927 9.16876 13.7073 8.48334ZM9.77839 13.2352L8.58858 13.5648L8.93678 12.4184L11.1074 10.2526L11.9362 11.0814L9.77839 13.2352ZM12.8791 10.1403L12.7656 10.2536L11.937 9.42494L12.0501 9.31203C12.2786 9.08357 12.6503 9.08357 12.8787 9.31203C13.1072 9.54048 13.1072 9.9122 12.8791 10.1403Z" fill="black"/>
<path d="M9.73974 3.51562H3.70459C3.38098 3.51562 3.11865 3.77795 3.11865 4.10156C3.11865 4.42518 3.38098 4.6875 3.70459 4.6875H9.73974C10.0634 4.6875 10.3257 4.42518 10.3257 4.10156C10.3257 3.77795 10.0634 3.51562 9.73974 3.51562Z" fill="black"/>
</svg>
