<svg width="25" height="25" fill="none" xmlns="http://www.w3.org/2000/svg"><path d="M10.303 13.965a2.2 2.2 0 002.197 2.197 2.2 2.2 0 002.197-2.197 2.2 2.2 0 00-2.197-2.197 2.2 2.2 0 00-2.197 2.197zm2.197 3.662a4.4 4.4 0 00-4.395 4.395V25h8.79v-2.979a4.4 4.4 0 00-4.395-4.394zM6.64 15.43a2.2 2.2 0 00-2.197-2.198 2.2 2.2 0 00-2.197 2.198 2.2 2.2 0 002.197 2.197 2.2 2.2 0 002.198-2.197zm16.114 0a2.2 2.2 0 00-2.197-2.198 2.2 2.2 0 00-2.198 2.198 2.2 2.2 0 002.198 2.197 2.2 2.2 0 002.197-2.197zM3.71 0L2.598 2.627 0 2.993l1.873 1.78-.43 2.6L3.71 6.187l2.27 1.186-.431-2.6 1.824-1.78-2.52-.366L3.71 0zm9.932 2.627L12.5 0l-1.114 2.627-2.548.366 1.824 1.78-.43 2.6L12.5 6.187l2.269 1.186-.43-2.6 1.823-1.78-2.52-.366zM21.29 0l-1.115 2.627-2.548.366 1.824 1.78-.43 2.6 2.268-1.186 2.269 1.186-.43-2.6L25 2.992l-2.57-.366L21.29 0zm-.734 19.092a4.36 4.36 0 00-2.592.862 5.8 5.8 0 01.395 2.067V25H25v-1.514c0-2.427-2.015-4.394-4.442-4.394zM0 23.486V25h6.64v-2.979c0-.73.15-1.422.396-2.067a4.358 4.358 0 00-2.593-.862C2.016 19.092 0 21.059 0 23.486z" fill="#292929"/></svg>