<svg width="25" height="25" fill="none" xmlns="http://www.w3.org/2000/svg"><g clip-path="url(#clip0)"><path d="M1.563 13.266v9.375c0 .863.701 1.563 1.562 1.563h7.813V13.266H1.562zm21.875-6.25h-4.944c.354-.242.66-.482.872-.698a3.266 3.266 0 000-4.597c-1.225-1.234-3.36-1.231-4.583 0-.678.68-2.475 3.447-2.227 5.295h-.112c.247-1.848-1.55-4.615-2.227-5.295C8.992.49 6.857.49 5.634 1.721a3.27 3.27 0 00-.001 4.597c.214.216.519.456.873.698H1.562C.703 7.016 0 7.718 0 8.58v2.344c0 .43.35.78.781.78h10.156V8.58h3.126v3.125h10.156c.431 0 .781-.35.781-.781V8.579c0-.861-.7-1.563-1.563-1.563zm-12.593-.051s-.065.051-.289.051c-1.08 0-3.14-1.122-3.814-1.8a1.704 1.704 0 010-2.393 1.66 1.66 0 011.185-.494c.445 0 .865.175 1.182.494 1.053 1.059 2.1 3.765 1.736 4.142zm3.597.051c-.222 0-.287-.05-.287-.051-.364-.377.683-3.083 1.736-4.142.63-.636 1.73-.64 2.367 0a1.7 1.7 0 010 2.393c-.674.678-2.735 1.8-3.816 1.8zm-.379 6.25v10.938h7.812c.863 0 1.563-.7 1.563-1.563v-9.375h-9.375z" fill="#292929"/><circle cx="39" cy="40" r="16" fill="#FF5C97" fill-opacity=".6"/></g><defs><clipPath id="clip0"><path fill="#fff" d="M0 0h25v25H0z"/></clipPath></defs></svg>