<svg width="27" height="27" fill="none" xmlns="http://www.w3.org/2000/svg"><g clip-path="url(#clip0)" fill="#292929"><path d="M9.912 12.335a1.129 1.129 0 100-2.257 1.129 1.129 0 000 2.257zm7.17 4.581a1.129 1.129 0 100-2.257 1.129 1.129 0 000 2.257z"/><path d="M26.388 14.991l-.41-.559a1.761 1.761 0 01-.016-2.052l.398-.565a1.761 1.761 0 00-.608-2.567l-.61-.326a1.753 1.753 0 01-.9-1.842l.115-.681a1.757 1.757 0 00-1.66-2.047l-.691-.028a1.763 1.763 0 01-1.616-1.267l-.193-.663a1.754 1.754 0 00-2.385-1.124l-.636.272c-.691.298-1.5.121-2.003-.443l-.459-.515a1.754 1.754 0 00-2.633.023l-.454.52a1.76 1.76 0 01-1.997.47l-.642-.266A1.761 1.761 0 006.62 2.493l-.182.67c-.2.73-.841 1.25-1.594 1.289l-.691.038a1.756 1.756 0 00-1.627 2.075l.127.68A1.754 1.754 0 011.78 9.1l-.603.337a1.756 1.756 0 00-.564 2.573l.41.559c.442.608.453 1.433.016 2.052l-.398.565a1.761 1.761 0 00.608 2.567l.609.326a1.753 1.753 0 01.901 1.842l-.116.68a1.757 1.757 0 001.66 2.048l.692.028a1.764 1.764 0 011.615 1.267l.194.663a1.754 1.754 0 002.384 1.123l.636-.27a1.753 1.753 0 012.003.442l.46.515c.708.785 1.941.78 2.633-.023l.454-.52c.497-.57 1.3-.758 1.997-.47l.642.266a1.761 1.761 0 002.367-1.162l.183-.67c.2-.73.84-1.25 1.593-1.289l.692-.038a1.756 1.756 0 001.627-2.075l-.128-.68a1.754 1.754 0 01.874-1.854l.603-.337a1.754 1.754 0 00.565-2.573zM7.184 11.207a2.72 2.72 0 012.722-2.722 2.72 2.72 0 012.722 2.722 2.72 2.72 0 01-2.722 2.722 2.724 2.724 0 01-2.722-2.722zm3.248 7.02a.666.666 0 01-.935.089.666.666 0 01-.088-.935l7.142-8.603a.666.666 0 01.935-.088c.282.232.32.652.088.934l-7.142 8.603zm6.65.283a2.72 2.72 0 01-2.722-2.722 2.72 2.72 0 012.722-2.722 2.72 2.72 0 012.722 2.722 2.72 2.72 0 01-2.722 2.722z"/></g><defs><clipPath id="clip0"><path fill="#fff" d="M0 0h27v27H0z"/></clipPath></defs></svg>