<svg width="385" height="449" viewBox="0 0 385 449" fill="none" xmlns="http://www.w3.org/2000/svg">
<path d="M28.1334 116.094C42.5333 89.8223 62.0161 66.7516 85.3856 48.1932C62.3008 66.875 43.203 90.4729 28.9226 116.526C11.7795 147.803 2.36692 182.726 1.47062 218.381C0.574504 254.029 7.49691 289.614 23.05 321.718C38.6029 353.822 62.3287 381.501 90.8584 402.894C119.394 424.291 152.633 438.551 187.803 444.484C222.968 450.417 259.172 448.329 293.152 437.476C327.025 426.658 357.45 408.185 382.626 383.081L383.195 383.294C357.975 408.34 327.166 427.043 293.3 437.858C259.188 448.753 222.964 451.329 187.653 445.372C152.342 439.415 118.969 425.097 90.3185 403.614C61.6683 382.131 38.573 354.106 22.9604 321.879C7.34777 289.652 -0.329001 254.157 0.57091 218.358C1.47082 182.56 10.9213 147.496 28.1334 116.094ZM106.422 33.3708C134.281 16.0417 165.628 5.01224 198.265 1.09776V1.20525C165.597 5.75667 135.71 15.5898 106.422 33.3708Z" stroke="url(#paint0_linear)"/>
<defs>
<linearGradient id="paint0_linear" x1="225" y1="-0.999878" x2="225" y2="449" gradientUnits="userSpaceOnUse">
<stop stop-color="#C1ABA6" stop-opacity="0.3"/>
<stop offset="1" stop-color="white"/>
</linearGradient>
</defs>
</svg>
