<svg width="622" height="596" viewBox="0 0 622 596" fill="none" xmlns="http://www.w3.org/2000/svg">
<path d="M216.749 22.2595C214.59 16.5288 208.185 13.6133 202.541 15.991C160.225 33.8194 122.726 61.5216 93.218 96.8433C61.3375 135.005 39.8688 180.763 30.8973 229.673C21.9258 278.583 25.7566 328.983 42.0174 375.975C58.2782 422.967 86.4163 464.955 123.698 497.86C160.98 530.764 206.139 553.468 254.788 563.764C303.436 574.06 353.92 571.599 401.337 556.62C448.753 541.641 491.49 514.653 525.394 478.278C556.776 444.611 579.605 403.96 592.037 359.757C593.695 353.862 590.006 347.868 584.052 346.437C578.097 345.007 572.133 348.683 570.457 354.573C558.929 395.059 537.946 432.288 509.172 463.158C477.875 496.735 438.426 521.647 394.657 535.473C350.887 549.3 304.286 551.572 259.379 542.068C214.473 532.564 172.788 511.607 138.373 481.233C103.959 450.859 77.9849 412.101 62.9748 368.723C47.9647 325.345 44.4287 278.823 52.7101 233.675C60.9915 188.526 80.809 146.288 110.237 111.061C137.293 78.6751 171.626 53.2284 210.366 36.7603C216.002 34.3645 218.908 27.9902 216.749 22.2595Z" fill="#FF037E"/>
<path d="M216.749 22.2595C214.59 16.5288 208.185 13.6133 202.541 15.991C160.225 33.8194 122.726 61.5216 93.218 96.8433C61.3375 135.005 39.8688 180.763 30.8973 229.673C21.9258 278.583 25.7566 328.983 42.0174 375.975C58.2782 422.967 86.4163 464.955 123.698 497.86C160.98 530.764 206.139 553.468 254.788 563.764C303.436 574.06 353.92 571.599 401.337 556.62C448.753 541.641 491.49 514.653 525.394 478.278C556.776 444.611 579.605 403.96 592.037 359.757C593.695 353.862 590.006 347.868 584.052 346.437C578.097 345.007 572.133 348.683 570.457 354.573C558.929 395.059 537.946 432.288 509.172 463.158C477.875 496.735 438.426 521.647 394.657 535.473C350.887 549.3 304.286 551.572 259.379 542.068C214.473 532.564 172.788 511.607 138.373 481.233C103.959 450.859 77.9849 412.101 62.9748 368.723C47.9647 325.345 44.4287 278.823 52.7101 233.675C60.9915 188.526 80.809 146.288 110.237 111.061C137.293 78.6751 171.626 53.2284 210.366 36.7603C216.002 34.3645 218.908 27.9902 216.749 22.2595Z" fill="url(#paint0_linear)"/>
<defs>
<linearGradient id="paint0_linear" x1="95.5" y1="89.0002" x2="522" y2="471" gradientUnits="userSpaceOnUse">
<stop stop-color="#FF5C97"/>
<stop offset="1" stop-color="#FF037E"/>
</linearGradient>
</defs>
</svg>
