<svg width="1288" height="435" fill="none" xmlns="http://www.w3.org/2000/svg"><path d="M-7 355.751c229.805 54.912 459.695 81.264 689.5 79.129 229.805-2.135 459.7-32.829 689.5-92.011V0c-202.21 71.621-432.019 108.72-689.5 111.296C425.019 113.799 195.214 84.135-7 22.303v333.448z" fill="#FF037E"/><path d="M-7 355.751c229.805 54.912 459.695 81.264 689.5 79.129 229.805-2.135 459.7-32.829 689.5-92.011V0c-202.21 71.621-432.019 108.72-689.5 111.296C425.019 113.799 195.214 84.135-7 22.303v333.448z" fill="url(#paint0_linear)"/><defs><linearGradient id="paint0_linear" x1="682.5" y1="56.5" x2="682.5" y2="435" gradientUnits="userSpaceOnUse"><stop stop-color="#FF5C97"/><stop offset="1" stop-color="#FF037E"/></linearGradient></defs></svg>