<svg width="15" height="15" fill="none" xmlns="http://www.w3.org/2000/svg"><path d="M10.326 6.445a.586.586 0 00-.586-.586H3.705a.586.586 0 100 1.172H9.74a.586.586 0 00.586-.586zM3.705 8.203a.586.586 0 100 1.172H7.37a.586.586 0 100-1.172H3.705z" fill="#000"/><path d="M5.082 13.828h-1.96a1.173 1.173 0 01-1.172-1.172V2.344c0-.646.526-1.172 1.172-1.172h7.204c.646 0 1.172.526 1.172 1.172v3.603a.586.586 0 101.172 0V2.344A2.346 2.346 0 0010.326 0H3.122A2.346 2.346 0 00.778 2.344v10.312A2.346 2.346 0 003.122 15h1.96a.586.586 0 100-1.172z" fill="#000"/><path d="M13.707 8.483a1.76 1.76 0 00-2.485 0l-3.217 3.21a.587.587 0 00-.147.244l-.7 2.306a.586.586 0 00.717.736l2.365-.656a.586.586 0 00.257-.15l3.21-3.204a1.76 1.76 0 000-2.486zm-3.929 4.752l-1.19.33.349-1.147 2.17-2.165.83.828-2.159 2.154zm3.101-3.095l-.113.114-.829-.83.113-.112a.587.587 0 01.83.828zM9.74 3.516H3.705a.586.586 0 100 1.171H9.74a.586.586 0 100-1.171z" fill="#000"/></svg>