<svg width="25" height="25" viewBox="0 0 25 25" fill="none" xmlns="http://www.w3.org/2000/svg">
<path d="M17.5681 7.08155H19.7596L16.5108 1.50774C16.2491 1.05609 15.6691 0.902118 15.2175 1.169C14.7658 1.43076 14.6118 2.01072 14.8787 2.46237L17.5681 7.08155Z" fill="#FF037E"/>
<path d="M10.1314 2.46229C10.3932 2.01064 10.2443 1.43067 9.79267 1.16892C9.34102 0.907166 8.76106 1.05601 8.4993 1.50766L5.25049 7.0866H7.44203L10.1314 2.46229Z" fill="#FF037E"/>
<path d="M23.3884 8.79077H1.60645C0.718538 8.79077 0 9.50931 0 10.3972V12.1782C0 13.0661 0.718538 13.7846 1.60645 13.7846H2.10942L3.65941 22.1864C3.85444 23.1769 4.75775 23.9622 5.69698 23.9622H6.31287H10.3572C10.7678 23.9622 11.3016 23.9622 11.8456 23.9622H12.3383H12.831C13.3751 23.9622 13.9088 23.9622 14.3194 23.9622H18.3638H18.9797C19.9189 23.9622 20.8222 23.1769 21.0172 22.1864L22.5775 13.7795H23.3936C24.2815 13.7795 25 13.0609 25 12.173V10.3921C24.9949 9.50931 24.2763 8.79077 23.3884 8.79077ZM8.86882 17.1874V20.8109C8.86882 21.3293 8.44796 21.7193 7.96038 21.7193C7.442 21.7193 7.05194 21.2985 7.05194 20.8109V19.2917V15.7298C7.05194 15.2114 7.4728 14.8214 7.96038 14.8214C8.47875 14.8214 8.86882 15.2422 8.86882 15.7298V17.1874ZM11.784 17.1874V20.8109C11.784 21.3293 11.3632 21.7193 10.8756 21.7193C10.3572 21.7193 9.96715 21.2985 9.96715 20.8109V19.2917V15.7298C9.96715 15.2114 10.388 14.8214 10.8756 14.8214C11.3632 14.8214 11.784 15.2422 11.784 15.7298V17.1874ZM14.7146 19.2917V20.8109C14.7146 21.2985 14.3246 21.7193 13.8062 21.7193C13.3186 21.7193 12.8978 21.3293 12.8978 20.8109V17.1874V15.7298C12.8978 15.2422 13.3186 14.8214 13.8062 14.8214C14.2938 14.8214 14.7146 15.2114 14.7146 15.7298V19.2917ZM17.6299 19.2917V20.8109C17.6299 21.2985 17.2398 21.7193 16.7214 21.7193C16.2338 21.7193 15.813 21.3293 15.813 20.8109V17.1874V15.7298C15.813 15.2422 16.203 14.8214 16.7214 14.8214C17.209 14.8214 17.6299 15.2114 17.6299 15.7298V19.2917Z" fill="#FF037E"/>
</svg>
