<svg width="25" height="27" fill="none" xmlns="http://www.w3.org/2000/svg"><path d="M2.164 7.974a10.941 10.941 0 016.57-4.637.671.671 0 00.414-1.012A4.943 4.943 0 004.954 0 4.954 4.954 0 000 4.953a4.92 4.92 0 001.071 3.07.676.676 0 001.093-.05zM20.046 0a4.94 4.94 0 00-4.182 2.307.676.676 0 00.415 1.016 10.933 10.933 0 016.6 4.602.674.674 0 001.096.039A4.918 4.918 0 0025 4.954 4.955 4.955 0 0020.046 0zm3.405 15.17c0-1.912-.497-3.71-1.364-5.274a10.934 10.934 0 00-7.892-5.5 10.89 10.89 0 00-1.657-.14c-.59 0-1.164.061-1.729.152a10.937 10.937 0 00-7.846 5.534 10.842 10.842 0 00-1.338 5.228c0 3.242 1.43 6.151 3.683 8.15l-.92 1.296a1.239 1.239 0 002.02 1.435l.919-1.295a10.845 10.845 0 005.211 1.328c1.886 0 3.662-.482 5.212-1.328l.919 1.295a1.236 1.236 0 001.725.292c.558-.397.69-1.17.294-1.727l-.92-1.295c2.253-2 3.683-4.909 3.683-8.151zM12.54 23.03c-4.335 0-7.861-3.525-7.861-7.86 0-1.352.343-2.624.945-3.736a7.875 7.875 0 015.705-4.023 7.859 7.859 0 011.211-.103c.389 0 .77.038 1.144.093a7.875 7.875 0 015.76 4.013 7.81 7.81 0 01.957 3.755c0 4.336-3.526 7.862-7.861 7.862z" fill="#FF037E"/><path d="M16.943 17.009l-3-1.852a1.433 1.433 0 00-.518-.867l.137-3.763a.872.872 0 00-1.74-.064l-.137 3.767a1.448 1.448 0 001.466 2.485l2.877 1.777a.871.871 0 10.915-1.483z" fill="#FF037E"/></svg>