<svg width="385" height="449" fill="none" xmlns="http://www.w3.org/2000/svg"><path d="M28.133 116.094a224.498 224.498 0 0157.253-67.9C62.3 66.874 43.203 90.472 28.923 116.525A223.604 223.604 0 001.47 218.381c-.896 35.648 6.026 71.233 21.579 103.337s39.279 59.783 67.808 81.176a223.593 223.593 0 0096.945 41.59c35.165 5.933 71.369 3.845 105.349-7.008 33.873-10.818 64.298-29.291 89.474-54.395l.569.213A224.496 224.496 0 0122.96 321.879a224.5 224.5 0 015.173-205.785zm78.289-82.723a224.502 224.502 0 0191.843-32.273v.107c-32.668 4.552-62.555 14.385-91.843 32.166z" stroke="url(#paint0_linear)"/><defs><linearGradient id="paint0_linear" x1="225" y1="-1" x2="225" y2="449" gradientUnits="userSpaceOnUse"><stop stop-color="#C1ABA6" stop-opacity=".3"/><stop offset="1" stop-color="#fff"/></linearGradient></defs></svg>