<svg width="27" height="27" fill="none" xmlns="http://www.w3.org/2000/svg"><g clip-path="url(#clip0)" fill="#292929"><path d="M25.615 12.78c-.475-1.236-.995-2.6-1.83-3.646-.632-.79-1.816-1.475-2.864-1.315l-.253.056a5.499 5.499 0 01-.378 2.95 5.511 5.511 0 01-1.185 1.758 5.511 5.511 0 01-3.911 1.62 5.511 5.511 0 01-3.911-1.62 5.511 5.511 0 01-1.367-2.25 8511.6 8511.6 0 00-8.612 1.977c-.207.049-.46.077-.646.176a.474.474 0 00-.27.455v10.85c0 .428.452.822 1.01.88l4.033.42 18.141 1.887c1.669.174 3.023-.725 3.023-2.01 0-.81-.54-1.577-1.357-2.079.818-.33 1.357-.987 1.357-1.796 0-.81-.54-1.577-1.355-2.078 2.411-.982 1.049-4.482.375-6.236zm-5.311 12.094L2.52 23.023v-1.778l17.784 1.85c1.668.174 3.022.713 3.022 1.203 0 .491-1.354.75-3.023.576zm0-3.543L2.52 19.48V17.7l17.784 1.854c1.668.174 3.022.712 3.022 1.203 0 .49-1.354.748-3.023.574zm0-3.543L2.52 15.938v-1.78l17.784 1.851c1.668.174 3.022.714 3.022 1.205 0 .492-1.354.748-3.023.574z"/><path d="M11.367 8.672a3.828 3.828 0 107.63-.418 3.827 3.827 0 00-4.395-3.363 9.426 9.426 0 00-.433-.785 11.661 11.661 0 00-.503-.752 14.88 14.88 0 00-.68-.864 11.51 11.51 0 00-1.428-1.435c-.456-.377-.94-.741-1.484-.982-.307-.136-.66-.093-.844.221-.155.266-.086.709.221.845.256.113.498.254.73.41a6.4 6.4 0 01.197.139l.131.099a10.61 10.61 0 011.015.924 12.712 12.712 0 01.884 1.015l.008.01.077.102c0 .002.002.003.003.004a12.145 12.145 0 01.488.707 9.812 9.812 0 01.428.736 3.825 3.825 0 00-2.045 3.387z"/></g><defs><clipPath id="clip0"><path fill="#fff" d="M0 0h27v27H0z"/></clipPath></defs></svg>