<svg width="25" height="20" fill="none" xmlns="http://www.w3.org/2000/svg"><path d="M2.4 6.055c.316.223 1.269.886 2.86 1.988 1.59 1.102 2.808 1.95 3.655 2.545l.592.426c.303.219.554.396.754.53.2.135.441.286.725.454.284.167.551.293.802.376.252.084.484.125.698.125h.028c.214 0 .447-.041.698-.125.25-.083.518-.21.802-.376.283-.168.525-.319.725-.454.2-.135.451-.311.753-.53.303-.219.5-.36.593-.426l6.53-4.534a6.628 6.628 0 001.701-1.716c.456-.669.684-1.371.684-2.106 0-.614-.221-1.14-.663-1.576A2.156 2.156 0 0022.767 0H2.233C1.516 0 .965.242.58.725.193 1.21 0 1.814 0 2.54c0 .586.256 1.22.767 1.904.512.684 1.056 1.221 1.633 1.612z" fill="#FF037E"/><path d="M23.605 7.548c-3.05 2.064-5.367 3.669-6.948 4.813-.53.39-.96.695-1.29.913-.33.22-.77.442-1.318.67-.549.228-1.06.342-1.535.342h-.028c-.474 0-.986-.114-1.535-.342-.548-.228-.988-.45-1.318-.67-.33-.218-.76-.523-1.29-.913-1.256-.92-3.567-2.525-6.934-4.813A7.39 7.39 0 010 6.334v11.077c0 .614.218 1.14.656 1.576.437.438.962.656 1.576.656h20.536c.614 0 1.14-.219 1.576-.656.438-.437.656-.962.656-1.576V6.334a7.73 7.73 0 01-1.395 1.214z" fill="#FF037E"/></svg>