<svg xmlns="http://www.w3.org/2000/svg" width="491" height="491" fill="none"><circle cx="247" cy="241" r="209.5" stroke="#C1ABA6" stroke-opacity=".3"/><path fill="#FF037E" d="M201.813 38.645c-1.569-7.477-8.916-12.308-16.282-10.283A224.817 224.817 0 0024.798 289.786a224.814 224.814 0 00427.701 42.179c2.951-7.046-.901-14.951-8.115-17.463-7.215-2.512-15.054 1.325-18.065 8.345a197.174 197.174 0 01-52.014 71.224 197.162 197.162 0 01-192.722 37.689 197.152 197.152 0 019.643-376.266c7.348-2.089 12.155-9.373 10.587-16.85z"/><path fill="url(#paint0_linear)" d="M201.813 38.645c-1.569-7.477-8.916-12.308-16.282-10.283A224.817 224.817 0 0024.798 289.786a224.814 224.814 0 00427.701 42.179c2.951-7.046-.901-14.951-8.115-17.463-7.215-2.512-15.054 1.325-18.065 8.345a197.174 197.174 0 01-52.014 71.224 197.162 197.162 0 01-192.722 37.689 197.152 197.152 0 019.643-376.266c7.348-2.089 12.155-9.373 10.587-16.85z"/><defs><linearGradient id="paint0_linear" x1="106.5" x2="417.5" y1="69.5" y2="373" gradientUnits="userSpaceOnUse"><stop stop-color="#FF5C97"/><stop offset="1" stop-color="#FF037E"/></linearGradient></defs></svg>