<svg width="622" height="596" fill="none" xmlns="http://www.w3.org/2000/svg"><path d="M216.749 22.26c-2.159-5.731-8.564-8.647-14.208-6.269a288.322 288.322 0 00-78.843 481.869 288.327 288.327 0 00277.639 58.76 288.316 288.316 0 00190.7-196.863c1.658-5.895-2.031-11.889-7.985-13.32-5.955-1.43-11.919 2.246-13.595 8.136a266.152 266.152 0 01-175.8 180.9 266.147 266.147 0 01-256.284-54.24 266.147 266.147 0 01-28.136-370.172 266.15 266.15 0 01100.129-74.3c5.636-2.397 8.542-8.77 6.383-14.502z" fill="#FF037E"/><path d="M216.749 22.26c-2.159-5.731-8.564-8.647-14.208-6.269a288.322 288.322 0 00-78.843 481.869 288.327 288.327 0 00277.639 58.76 288.316 288.316 0 00190.7-196.863c1.658-5.895-2.031-11.889-7.985-13.32-5.955-1.43-11.919 2.246-13.595 8.136a266.152 266.152 0 01-175.8 180.9 266.147 266.147 0 01-256.284-54.24 266.147 266.147 0 01-28.136-370.172 266.15 266.15 0 01100.129-74.3c5.636-2.397 8.542-8.77 6.383-14.502z" fill="url(#paint0_linear)"/><defs><linearGradient id="paint0_linear" x1="95.5" y1="89" x2="522" y2="471" gradientUnits="userSpaceOnUse"><stop stop-color="#FF5C97"/><stop offset="1" stop-color="#FF037E"/></linearGradient></defs></svg>