<svg width="25" height="20" viewBox="0 0 25 20" fill="none" xmlns="http://www.w3.org/2000/svg">
<path d="M2.3995 6.05466C2.71575 6.27782 3.66903 6.9406 5.2594 8.04268C6.84981 9.14475 8.06818 9.99331 8.91455 10.5884C9.00754 10.6537 9.20509 10.7955 9.50732 11.014C9.80959 11.2327 10.0607 11.4095 10.2606 11.5443C10.4606 11.6791 10.7024 11.8302 10.9862 11.9976C11.2699 12.1648 11.5373 12.2906 11.7884 12.3739C12.0396 12.4578 12.2721 12.4994 12.486 12.4994H12.5H12.514C12.7279 12.4994 12.9605 12.4578 13.2117 12.3739C13.4627 12.2906 13.7304 12.1647 14.0138 11.9976C14.2974 11.8301 14.5392 11.679 14.7392 11.5443C14.9392 11.4095 15.1902 11.2327 15.4925 11.014C15.7947 10.7953 15.9925 10.6537 16.0855 10.5884C16.941 9.99331 19.1175 8.48191 22.6144 6.05436C23.2933 5.58024 23.8605 5.00814 24.3162 4.33846C24.7722 3.66908 25 2.96686 25 2.23219C25 1.61827 24.7789 1.09274 24.3371 0.655653C23.8953 0.21847 23.3721 0 22.7678 0H2.23205C1.51595 0 0.964863 0.241778 0.578888 0.725333C0.192963 1.20899 0 1.81353 0 2.53891C0 3.12483 0.25585 3.75977 0.767307 4.44333C1.27871 5.12693 1.82296 5.66409 2.3995 6.05466Z" fill="#FF037E"/>
<path d="M23.6047 7.54766C20.5544 9.6122 18.2383 11.2167 16.6574 12.3608C16.1273 12.7513 15.6972 13.0561 15.367 13.2745C15.0367 13.4931 14.5975 13.7163 14.0486 13.944C13.5 14.1721 12.9887 14.2858 12.5142 14.2858H12.5H12.486C12.0117 14.2858 11.5001 14.1721 10.9514 13.944C10.4028 13.7163 9.96326 13.4931 9.63309 13.2745C9.30302 13.0561 8.87282 12.7513 8.34275 12.3608C7.0871 11.4401 4.77594 9.83551 1.40918 7.54766C0.878912 7.19447 0.409234 6.78964 0 6.33398V17.4107C0 18.0249 0.21847 18.5501 0.655653 18.9872C1.09274 19.4245 1.61832 19.6431 2.23219 19.6431H22.768C23.3817 19.6431 23.9072 19.4245 24.3443 18.9872C24.7816 18.55 25 18.0249 25 17.4107V6.33398C24.6 6.78021 24.1351 7.18504 23.6047 7.54766Z" fill="#FF037E"/>
</svg>
