<svg width="28" height="28" viewBox="0 0 28 28" fill="none" xmlns="http://www.w3.org/2000/svg">
<g clip-path="url(#clip0)">
<path d="M26.3285 16.2756C25.3744 15.313 24.1136 14.7268 22.7752 14.603C23.9306 13.5636 24.6595 12.063 24.6595 10.3867C24.6595 7.25071 22.1183 4.70947 18.9817 4.70947C15.986 4.70947 13.5332 7.02989 13.3203 9.97068C15.9854 11.1236 17.8556 13.7795 17.8556 16.863C17.8556 17.9891 17.5994 19.0895 17.123 20.0881C17.8093 20.4467 18.4418 20.9103 18.9933 21.4667C20.4072 22.8904 21.2106 24.8588 21.1953 26.8657L21.1941 26.9066L21.1929 26.9414L21.1429 27.8911H27.9437L27.9998 20.3699C28.0114 18.8357 27.4106 17.3644 26.3285 16.2756Z" fill="#292929"/>
<path d="M14.1423 21.0803C15.2971 20.0415 16.0284 18.5403 16.0284 16.864C16.0284 13.7274 13.486 11.1855 10.35 11.1855C7.2134 11.1855 4.67155 13.7274 4.67155 16.864C4.67155 18.5372 5.39989 20.0372 6.55278 21.0766C3.6004 21.3054 1.26839 23.7502 1.24704 26.7606L1.19092 27.8909H9.82418H19.3114L19.3676 26.8453C19.3785 25.3118 18.7771 23.8405 17.6956 22.7517C16.7403 21.7885 15.4801 21.2041 14.1423 21.0803Z" fill="#292929"/>
<path d="M3.66241 6.93827V9.04763C3.66241 9.92115 4.37245 10.6306 5.24657 10.6306C6.12191 10.6306 6.83073 9.92115 6.83073 9.04763V6.93827H8.93765C9.81177 6.93827 10.5212 6.22824 10.5212 5.35411C10.5212 4.4806 9.81177 3.77057 8.93765 3.77057H6.83073V1.69231C6.83073 0.818189 6.12191 0.109375 5.24657 0.109375C4.37245 0.109375 3.66241 0.818189 3.66241 1.69231V3.76996H1.58355C0.708205 3.76996 0 4.47999 0 5.3535C0 6.22763 0.708205 6.93766 1.58355 6.93766H3.66241V6.93827Z" fill="#292929"/>
</g>
<defs>
<clipPath id="clip0">
<rect width="28" height="28" fill="white"/>
</clipPath>
</defs>
</svg>
