<svg width="25" height="25" viewBox="0 0 25 25" fill="none" xmlns="http://www.w3.org/2000/svg">
<g clip-path="url(#clip0)">
<path d="M1.5625 13.2661V22.6411C1.5625 23.5036 2.26406 24.2036 3.125 24.2036H10.9375V13.2661H1.5625Z" fill="#292929"/>
<path d="M23.4375 7.01631H18.4938C18.8484 6.77412 19.1531 6.5335 19.3656 6.31787C20.6266 5.05068 20.6266 2.98818 19.3656 1.721C18.1406 0.486621 16.0063 0.489747 14.7828 1.721C14.1047 2.40068 12.3078 5.16787 12.5563 7.01631H12.4438C12.6906 5.16787 10.8938 2.40068 10.2172 1.721C8.99219 0.489747 6.85781 0.489747 5.63438 1.721C4.375 2.98818 4.375 5.05068 5.63281 6.31787C5.84688 6.5335 6.15156 6.77412 6.50625 7.01631H1.5625C0.701563 7.01631 0 7.71787 0 8.57881V10.9226C0 11.3538 0.35 11.7038 0.78125 11.7038H10.9375V8.57881H14.0625V11.7038H24.2188C24.65 11.7038 25 11.3538 25 10.9226V8.57881C25 7.71787 24.3 7.01631 23.4375 7.01631ZM10.8453 6.96475C10.8453 6.96475 10.7797 7.01631 10.5562 7.01631C9.47656 7.01631 7.41563 5.89443 6.74219 5.21631C6.0875 4.55693 6.0875 3.48193 6.74219 2.82256C7.05938 2.50381 7.47969 2.32881 7.92656 2.32881C8.37187 2.32881 8.79219 2.50381 9.10938 2.82256C10.1625 3.88193 11.2094 6.58818 10.8453 6.96475ZM14.4422 7.01631C14.2203 7.01631 14.1547 6.96631 14.1547 6.96475C13.7906 6.58818 14.8375 3.88193 15.8906 2.82256C16.5203 2.18662 17.6219 2.1835 18.2578 2.82256C18.9141 3.48193 18.9141 4.55693 18.2578 5.21631C17.5844 5.89443 15.5234 7.01631 14.4422 7.01631Z" fill="#292929"/>
<path d="M14.0625 13.2661V24.2036H21.875C22.7375 24.2036 23.4375 23.5036 23.4375 22.6411V13.2661H14.0625Z" fill="#292929"/>
<circle cx="39" cy="40" r="16" fill="#FF5C97" fill-opacity="0.6"/>
</g>
<defs>
<clipPath id="clip0">
<rect width="25" height="25" fill="white"/>
</clipPath>
</defs>
</svg>
