<svg width="27" height="27" viewBox="0 0 27 27" fill="none" xmlns="http://www.w3.org/2000/svg">
<g clip-path="url(#clip0)">
<path d="M9.91183 12.3354C10.5352 12.3354 11.0405 11.8301 11.0405 11.2068C11.0405 10.5834 10.5352 10.0781 9.91183 10.0781C9.28851 10.0781 8.7832 10.5834 8.7832 11.2068C8.7832 11.8301 9.28851 12.3354 9.91183 12.3354Z" fill="#292929"/>
<path d="M17.0822 16.9164C17.7056 16.9164 18.2109 16.4111 18.2109 15.7878C18.2109 15.1645 17.7056 14.6592 17.0822 14.6592C16.4589 14.6592 15.9536 15.1645 15.9536 15.7878C15.9536 16.4111 16.4589 16.9164 17.0822 16.9164Z" fill="#292929"/>
<path d="M26.3877 14.991L25.9783 14.4322C25.5357 13.8236 25.5246 12.9993 25.9617 12.3797L26.36 11.8153C26.9686 10.9523 26.6864 9.75173 25.7515 9.24828L25.1429 8.92186C24.479 8.56778 24.1138 7.82643 24.2411 7.07955L24.3573 6.39905C24.5343 5.35894 23.7542 4.39629 22.6975 4.35203L22.006 4.32437C21.2535 4.29118 20.6007 3.78219 20.3905 3.05743L20.1968 2.39353C19.9036 1.37556 18.7861 0.849972 17.8123 1.27044L17.1761 1.54153C16.4846 1.84029 15.6768 1.66325 15.1734 1.09893L14.7142 0.584413C14.0115 -0.201199 12.7778 -0.195666 12.0807 0.606543L11.627 1.1266C11.1291 1.69644 10.3269 1.88455 9.62981 1.59686L8.98804 1.3313C8.00879 0.927427 6.90229 1.47514 6.62014 2.49312L6.43757 3.16255C6.2384 3.89284 5.59663 4.41289 4.84421 4.45162L4.15265 4.49034C3.09595 4.5512 2.33246 5.52492 2.5261 6.56502L2.65335 7.24552C2.79166 7.98687 2.43758 8.73376 1.77922 9.0989L1.17618 9.43638C0.252252 9.9509 -0.0133069 11.157 0.611863 12.009L1.02127 12.5678C1.46387 13.1763 1.47493 14.0007 1.03786 14.6203L0.639526 15.1846C0.030953 16.0477 0.313109 17.2482 1.2481 17.7517L1.85667 18.0781C2.52057 18.4322 2.88571 19.1735 2.75847 19.9204L2.64228 20.6009C2.46524 21.641 3.24532 22.6037 4.30203 22.6479L4.99359 22.6756C5.74601 22.7088 6.39884 23.2178 6.60907 23.9425L6.80271 24.6064C7.09593 25.6244 8.21349 26.15 9.18721 25.7295L9.82344 25.4584C10.515 25.1597 11.3227 25.3367 11.8262 25.901L12.2854 26.4156C12.9936 27.2012 14.2273 27.1956 14.9189 26.3934L15.3725 25.8734C15.8704 25.3035 16.6727 25.1154 17.3697 25.4031L18.0115 25.6687C18.9908 26.0725 20.0973 25.5248 20.3794 24.5069L20.562 23.8374C20.7612 23.1071 21.4029 22.5871 22.1553 22.5484L22.8469 22.5096C23.9036 22.4488 24.6671 21.4751 24.4735 20.435L24.3462 19.7545C24.2079 19.0131 24.562 18.2662 25.2203 17.9011L25.8234 17.5636C26.7473 17.0546 27.0129 15.8485 26.3877 14.991ZM7.18445 11.2068C7.18445 9.70194 8.4016 8.4848 9.90643 8.4848C11.4113 8.4848 12.6284 9.70194 12.6284 11.2068C12.6284 12.7116 11.4113 13.9288 9.90643 13.9288C8.4016 13.9288 7.18445 12.7061 7.18445 11.2068ZM10.432 18.2275C10.1997 18.5096 9.77918 18.5484 9.49703 18.316C9.21487 18.0836 9.17614 17.6632 9.40851 17.381L16.5509 8.77802C16.7833 8.49586 17.2038 8.45713 17.4859 8.6895C17.7681 8.92186 17.8068 9.34233 17.5744 9.62449L10.432 18.2275ZM17.0821 18.5096C15.5772 18.5096 14.3601 17.2925 14.3601 15.7877C14.3601 14.2828 15.5772 13.0657 17.0821 13.0657C18.5869 13.0657 19.804 14.2828 19.804 15.7877C19.804 17.2925 18.5869 18.5096 17.0821 18.5096Z" fill="#292929"/>
</g>
<defs>
<clipPath id="clip0">
<rect width="27" height="27" fill="white"/>
</clipPath>
</defs>
</svg>
