<svg width="27" height="27" viewBox="0 0 27 27" fill="none" xmlns="http://www.w3.org/2000/svg">
<g clip-path="url(#clip0)">
<path d="M25.6149 12.7795C25.1399 11.5438 24.6197 10.1791 23.7845 9.1338C23.1531 8.3436 21.9693 7.65928 20.9212 7.81932C20.9076 7.82139 20.82 7.84052 20.6679 7.87454C20.7057 8.13678 20.7251 8.40269 20.7251 8.67144C20.7251 9.41744 20.5786 10.142 20.2897 10.8251C20.011 11.484 19.6124 12.0754 19.105 12.5828C18.5975 13.0903 18.0061 13.4889 17.3472 13.7676C16.6642 14.0565 15.9396 14.203 15.1936 14.203C14.4476 14.203 13.723 14.0565 13.04 13.7676C12.3811 13.4889 11.7897 13.0903 11.2822 12.5828C10.7748 12.0754 10.3762 11.484 10.0975 10.8251C10.029 10.6631 9.96875 10.4987 9.91631 10.3323C5.56957 11.3294 1.53932 12.2555 1.30397 12.3103C1.09652 12.3586 0.844 12.3874 0.657814 12.4865C0.500759 12.57 0.388184 12.7036 0.388184 12.941V23.7912C0.388184 24.2188 0.84022 24.6127 1.39722 24.6707L5.43059 25.0901L23.5724 26.9784C25.2407 27.1522 26.5951 26.2528 26.5951 24.9688C26.5951 24.1582 26.0556 23.3908 25.2382 22.889C26.0556 22.5587 26.5952 21.9019 26.5952 21.0925C26.5952 20.2833 26.0557 19.5159 25.2397 19.0155C27.6512 18.0332 26.2889 14.5334 25.6149 12.7795ZM20.3035 24.8743L2.51971 23.0226V21.245L20.3035 23.0953C21.9718 23.2694 23.326 23.8076 23.326 24.2984C23.326 24.7894 21.9718 25.0483 20.3035 24.8743ZM20.3035 21.3313L2.51971 19.4795V17.7006L20.3035 19.5537C21.9718 19.7277 23.326 20.2657 23.326 20.7567C23.326 21.2476 21.9718 21.5053 20.3035 21.3313ZM20.3035 17.7883L2.51971 15.9378V14.1588L20.3035 16.0093C21.9718 16.1832 23.326 16.7228 23.326 17.2136C23.326 17.706 21.9718 17.9622 20.3035 17.7883Z" fill="#292929"/>
<path d="M11.3675 8.67165C11.3675 9.1198 11.4448 9.54984 11.5864 9.94949C12.1123 11.4342 13.5287 12.4979 15.1937 12.4979C17.3069 12.4979 19.0199 10.7848 19.0199 8.67168C19.0199 8.5304 19.012 8.391 18.9971 8.25367C18.7888 6.33718 17.1656 4.84547 15.1937 4.84547C14.9923 4.84547 14.7946 4.86113 14.6016 4.89111C14.4707 4.62322 14.3256 4.3614 14.1692 4.10612C14.0115 3.8488 13.8425 3.59813 13.6657 3.35436C13.4489 3.0556 13.2204 2.76721 12.9861 2.49002C12.5504 1.9746 12.0774 1.4867 11.5576 1.05538C11.1024 0.677635 10.6183 0.31376 10.0744 0.0730625C9.76679 -0.0630744 9.41412 -0.0197038 9.23006 0.294463C9.07457 0.559915 9.14369 1.00263 9.45146 1.13882C9.70674 1.2518 9.94931 1.39257 10.1803 1.54908C10.247 1.5943 10.3132 1.64028 10.3783 1.6878C10.402 1.70514 10.4871 1.77 10.5095 1.78651C10.6081 1.86461 10.7057 1.94411 10.8009 2.02638C11.0521 2.24346 11.2937 2.4718 11.5244 2.71062C11.7672 2.96206 12.0007 3.22271 12.222 3.49337C12.2848 3.57027 12.3472 3.64761 12.4083 3.72596C12.4085 3.72613 12.4086 3.72628 12.4088 3.72645C12.4109 3.72937 12.4134 3.73256 12.4161 3.73608C12.4418 3.77007 12.4676 3.80404 12.493 3.83826C12.4939 3.83953 12.4948 3.84081 12.4958 3.84206C12.5962 3.97741 12.6946 4.11425 12.7893 4.25369C12.8555 4.35109 12.9202 4.44945 12.9837 4.5487C13.1074 4.7423 13.2254 4.93954 13.3352 5.14133C13.3612 5.18905 13.3867 5.237 13.412 5.28509C12.1963 5.92598 11.3675 7.20192 11.3675 8.67165Z" fill="#292929"/>
</g>
<defs>
<clipPath id="clip0">
<rect width="27" height="27" fill="white"/>
</clipPath>
</defs>
</svg>
